<svg width="26" height="26" viewBox="0 0 26 26" fill="none" xmlns="http://www.w3.org/2000/svg">
<circle cx="13" cy="13" r="13" fill="white"/>
<path d="M17.9708 7.28862L17.9708 7.28863L17.9689 7.28644C17.5675 6.83282 16.9041 6.75815 16.4355 7.09543L16.4351 7.09575C15.937 7.45319 15.768 8.1167 16.0466 8.6684L16.048 8.67113C16.1099 8.79599 16.2099 8.92304 16.3295 9.04251L16.3312 9.04429C17.7677 10.4982 18.3446 12.2735 17.8341 14.3294L17.8341 14.3296C17.3466 16.2894 16.0916 17.5916 14.2444 18.1774L14.2439 18.1775C12.4432 18.7457 10.7473 18.3828 9.29385 17.1611C8.04104 16.1107 7.39943 14.6968 7.37738 13.0317C7.35838 11.703 7.8042 10.528 8.62331 9.52523C8.69458 9.43742 8.77424 9.36627 8.83162 9.31547C8.83664 9.31102 8.8415 9.30672 8.84621 9.30256C8.90256 9.25272 8.93761 9.22171 8.96795 9.18823L8.96793 9.18821L8.97093 9.18498C9.3007 8.82901 9.38902 8.42546 9.24507 7.95201C9.09942 7.48529 8.79129 7.22029 8.32751 7.12619C7.98891 7.05824 7.68268 7.14284 7.38088 7.38519L7.37967 7.38615C6.77746 7.86593 6.35485 8.51599 5.96088 9.25149C5.29886 10.4885 5.00042 11.824 5.04793 13.2449L5.04794 13.2453C5.10383 14.978 5.65228 16.5167 6.68685 17.8675C7.66908 19.1469 8.89547 20.0439 10.3793 20.4968L10.3796 20.4969C12.912 21.2722 15.2522 20.8674 17.372 19.2076L17.3722 19.2075C18.7442 18.1347 19.6461 16.7092 20.094 14.9676L20.0945 14.9659C20.2628 14.3236 20.3359 13.6623 20.339 12.9822C20.3074 10.8173 19.5663 8.97538 18.1076 7.4439L18.3972 7.16803L18.1084 7.44473C18.077 7.412 18.0257 7.35227 17.9948 7.31628C17.9833 7.30294 17.9747 7.29286 17.9708 7.28862Z" fill="#FE724C" stroke="white" stroke-width="0.8"/>
<path d="M11.1113 10.6563C11.1143 11.4966 11.726 12.1934 12.5222 12.2728C13.3477 12.3584 14.0854 11.8022 14.2493 10.9649C14.2727 10.8458 14.2756 10.7235 14.2756 10.6013M11.1113 10.6563C11.1055 8.395 11.1055 7.60037 11.1113 5.33908C11.1113 4.73708 11.3836 4.26955 11.8724 3.96397C12.3817 3.64311 12.9262 3.63088 13.4472 3.93035C13.98 4.23593 14.2669 4.7218 14.2698 5.36352M11.1113 10.6563L11.5113 10.6553C11.5113 10.6552 11.5113 10.6552 11.5113 10.6552C11.5137 11.3041 11.9832 11.817 12.562 11.8748L12.5635 11.8749C13.1756 11.9384 13.7311 11.5297 13.8567 10.8881L13.8568 10.8878C13.8721 10.81 13.8756 10.7216 13.8756 10.6023M11.1113 10.6563L11.5113 10.6549L13.8756 10.6023M14.2698 5.36352C14.2716 6.0813 14.2711 6.50093 14.2705 7.00302C14.2702 7.28755 14.2698 7.59857 14.2698 8.00533V8.00538C14.2698 9.11459 14.2698 9.49205 14.2756 10.6013M14.2698 5.36352L13.8698 5.36535C13.8698 5.36522 13.8698 5.3651 13.8698 5.36498M14.2698 5.36352L13.8698 5.36456C13.8698 5.3647 13.8698 5.36484 13.8698 5.36498M14.2756 10.6013L13.8756 10.6034C13.8756 10.603 13.8756 10.6027 13.8756 10.6023M14.2756 10.6013H13.8756C13.8756 10.6016 13.8756 10.602 13.8756 10.6023M13.8756 10.6023C13.8698 9.49289 13.8698 9.11453 13.8698 8.00533C13.8698 7.59753 13.8702 7.28621 13.8705 7.00164C13.8711 6.50023 13.8716 6.08184 13.8698 5.36498M13.8756 10.6023L11.5113 5.34011L11.5113 5.33908C11.5113 4.87803 11.7099 4.53726 12.0844 4.30315L12.0856 4.30241L12.0856 4.30241C12.4703 4.06006 12.8561 4.05193 13.2479 4.27715L13.2482 4.27733C13.6555 4.51091 13.8674 4.86418 13.8698 5.36498" fill="#FE724C" stroke="white" stroke-width="0.8"/>
</svg>
